<?xml version="1.0" encoding="UTF-8" standalone="no"?>
<svg
   xmlns:dc="http://purl.org/dc/elements/1.1/"
   xmlns:cc="http://creativecommons.org/ns#"
   xmlns:rdf="http://www.w3.org/1999/02/22-rdf-syntax-ns#"
   xmlns:svg="http://www.w3.org/2000/svg"
   xmlns="http://www.w3.org/2000/svg"
   xmlns:sodipodi="http://sodipodi.sourceforge.net/DTD/sodipodi-0.dtd"
   xmlns:inkscape="http://www.inkscape.org/namespaces/inkscape"
   version="1.1"
   x="0px"
   y="0px"
   viewBox="0 0 13.366 13.491249999999999"
   enable-background="new 0 0 13.366 10.793"
   xml:space="preserve"
   id="svg30"
   sodipodi:docname="cat.svg"
   inkscape:version="1.0.1 (3bc2e813f5, 2020-09-07)"><metadata
     id="metadata36"><rdf:RDF><cc:Work
         rdf:about=""><dc:format>image/svg+xml</dc:format><dc:type
           rdf:resource="http://purl.org/dc/dcmitype/StillImage" /></cc:Work></rdf:RDF></metadata><defs
     id="defs34" /><sodipodi:namedview
     pagecolor="#ffffff"
     bordercolor="#666666"
     borderopacity="1"
     objecttolerance="10"
     gridtolerance="10"
     guidetolerance="10"
     inkscape:pageopacity="0"
     inkscape:pageshadow="2"
     inkscape:window-width="1914"
     inkscape:window-height="946"
     id="namedview32"
     showgrid="false"
     inkscape:zoom="51.698339"
     inkscape:cx="6.683"
     inkscape:cy="6.745625"
     inkscape:window-x="0"
     inkscape:window-y="0"
     inkscape:window-maximized="0"
     inkscape:current-layer="svg30" /><path
     d="M12.793,10.181l-0.807-0.794c-0.964-0.794-0.847-1.927-0.859-2.044c-0.013-0.116-0.013-0.585,0.026-0.741  S11.14,6.276,11.14,6.276c0.287-1.172,1.211-0.847,1.211-0.847c0.377,0.039,0.391-0.325,0.391-0.325  c0.26-0.13,0.195-0.403,0.195-0.403L12.48,4.219c-0.182-0.481-0.702-0.599-0.702-0.599c0.077-0.481-0.17-0.781-0.17-0.781  c-0.039,0.143-0.585,0.719-0.625,0.729c-0.638,0.156-0.43,0.261-0.833,0.547s-1.263,0.638-1.64,0.43  C8.133,4.336,4.996,4.063,3.643,4.063c-0.401,0-0.714,0.083-0.956,0.199C2.465,4.092,2.179,3.725,1.968,3.226  C1.657,2.491,1.613,1.753,1.852,1.252c0.128-0.27,0.274-0.423,0.435-0.455c0.239-0.047,0.535,0.161,0.62,0.238  c0.16,0.147,0.409,0.137,0.557-0.023c0.148-0.16,0.139-0.41-0.021-0.558C3.38,0.396,2.812-0.108,2.139,0.021  C1.717,0.102,1.38,0.402,1.138,0.913C0.799,1.625,0.836,2.58,1.24,3.534c0.182,0.43,0.472,0.914,0.827,1.24  C1.974,4.904,1.937,5,1.937,5C1.82,5.273,1.495,5.885,1.612,6.445c0.117,0.56-0.234,0.82-0.299,0.885  C1.247,7.396,0.57,7.799,0.57,7.799l-0.56,1.979c-0.091,0.378,0.417,0.599,0.417,0.599c0.182-0.025,0.195-0.624,0.195-0.624  L1.065,8.71l1.666-0.611c0,0,0,0.703-0.026,0.833S2.614,9.283,2.614,9.283c0.065,0.455,1.185,1.51,1.185,1.51h0.846V10.52  c-0.065-0.3-0.495-0.156-0.495-0.156l-0.625-0.95c0.664-0.521,0.937-1.393,0.937-1.393c0.312,0.26,1.809-0.222,1.809-0.222  L7.17,7.89L6.91,9.985c-0.078,0.508,0.039,0.69,0.039,0.69h0.403c0.287,0,0.482,0.039,0.482-0.261c0-0.299-0.403-0.247-0.403-0.247  l0.988-1.952c0.938-0.573,1.536,0.26,1.536,0.26l0.053,0.3c0.364,0.533,2.369,1.9,2.369,1.9h0.989v-0.3  C13.196,10.063,12.793,10.181,12.793,10.181z"
     id="path24" /><text
     x="0"
     y="25.793"
     fill="#000000"
     font-size="5px"
     font-weight="bold"
     font-family="'Helvetica Neue', Helvetica, Arial-Unicode, Arial, Sans-serif"
     id="text26">Created by Marco Hernandez</text><text
     x="0"
     y="30.793"
     fill="#000000"
     font-size="5px"
     font-weight="bold"
     font-family="'Helvetica Neue', Helvetica, Arial-Unicode, Arial, Sans-serif"
     id="text28">from the Noun Project</text><path
     style="fill:#ff0000;stroke-width:0.019343"
     d="M 3.5109623,10.484777 C 3.0499959,10.008321 2.7420239,9.6139723 2.6569718,9.3912667 c -0.03208,-0.084 -0.03174,-0.092137 0.010616,-0.2539898 0.034072,-0.1301972 0.048323,-0.2625353 0.064383,-0.5978674 0.011344,-0.2368619 0.015757,-0.4355266 0.00981,-0.4414766 C 2.7358308,8.0919829 2.354143,8.2254006 1.8935861,8.394417 L 1.0562077,8.7017198 0.83804733,9.215562 C 0.64168866,9.6780536 0.61794212,9.7465723 0.60042575,9.9011993 0.5769512,10.108422 0.53633503,10.252609 0.48196657,10.321727 l -0.0403752,0.05133 -0.0786535,-0.04383 C 0.24560557,10.263835 0.10002193,10.125916 0.05483397,10.037341 0.03075916,9.9901501 0.01536677,9.9239381 0.01610594,9.870748 0.01772276,9.7544008 0.56830425,7.8172532 0.60734543,7.7905506 0.62322523,7.7796894 0.77316089,7.6881118 0.94053579,7.5870447 1.1079107,7.4859776 1.2985211,7.3535086 1.3641144,7.2926689 1.5670091,7.1044787 1.6608163,6.8689106 1.6366588,6.6082571 1.6003952,6.2169819 1.6014954,6.0130988 1.6408306,5.8351331 1.6916481,5.6052182 1.7928146,5.3355223 1.947156,5.0185119 L 2.0723029,4.7614655 1.9243506,4.6041912 C 1.465451,4.1163781 1.0705003,3.2579265 0.9561949,2.4998406 0.91591884,2.2327255 0.91629199,1.7700694 0.95696715,1.5423631 1.0923581,0.78442146 1.5192313,0.20402264 2.050356,0.05573526 2.2935406,-0.01216067 2.5319359,-0.00114459 2.8011768,0.09043018 3.1530798,0.21012014 3.4864696,0.45740064 3.5409083,0.63910099 3.6109553,0.8728966 3.4216482,1.126489 3.1770727,1.126489 3.0696178,1.126489 3.0303869,1.1092367 2.8602242,0.98715054 2.3982111,0.65567138 2.106271,0.72188471 1.8655417,1.2127489 1.7642336,1.4193234 1.7276332,1.5520856 1.7008001,1.8103223 1.6404706,2.3909209 1.8622544,3.1822858 2.252012,3.7771459 2.3209113,3.8823021 2.443745,4.0379038 2.5249759,4.122927 l 0.1476926,0.1545881 0.099882,-0.040767 C 3.1363208,4.0882741 3.4412975,4.0555695 4.1890743,4.0848457 6.0514276,4.1577587 8.116634,4.3819821 8.4853346,4.551299 8.6782015,4.639868 9.0170902,4.623389 9.3716743,4.508198 9.7924689,4.3714975 10.186944,4.1370311 10.407969,3.8922494 10.559066,3.7249125 10.654011,3.6673952 10.87227,3.6109775 10.991054,3.580273 11.005177,3.5698698 11.195298,3.3730213 11.304645,3.2598051 11.443744,3.1001506 11.504407,3.0182337 l 0.110296,-0.14894 0.03425,0.054094 c 0.0784,0.1238208 0.117018,0.2777965 0.123713,0.493234 l 0.0066,0.2107625 0.104927,0.042646 c 0.247413,0.1005562 0.444058,0.2675043 0.538697,0.4573454 0.03184,0.063878 0.141089,0.1982456 0.284646,0.3501091 0.128133,0.135546 0.23292,0.2617589 0.23286,0.2804733 -2.88e-4,0.09079 -0.048,0.1939532 -0.12321,0.266406 -0.05047,0.048622 -0.0902,0.1097062 -0.106302,0.1634499 -0.03349,0.11177 -0.128588,0.2063461 -0.225837,0.22459 -0.04264,0.008 -0.122556,0.00445 -0.183547,-0.00815 -0.528023,-0.1090615 -0.930831,0.1429274 -1.117781,0.6992623 -0.04999,0.1487743 -0.05436,0.1794431 -0.03707,0.260302 0.01441,0.067365 0.01259,0.1326708 -0.0069,0.2464019 -0.03551,0.2076908 -0.02911,1.0215829 0.01008,1.2816023 0.05733,0.3804337 0.186046,0.718674 0.387415,1.0180646 0.126881,0.1886431 0.195894,0.2612162 0.793915,0.8348599 l 0.464231,0.4453091 0.08704,-0.01304 c 0.174416,-0.02612 0.361512,0.03963 0.444543,0.15624 0.03033,0.0426 0.03903,0.08542 0.03903,0.192066 v 0.137251 h -0.494378 -0.494378 l -0.293848,-0.20724 C 10.939947,9.6489082 10.046005,8.9072414 10.013404,8.7379521 10.007257,8.7060361 9.9924601,8.6297861 9.9805204,8.5685075 9.9556521,8.4408733 9.9094011,8.3778625 9.7515191,8.2565256 9.5061433,8.067947 9.3093097,8.0039115 9.0153144,8.0170173 8.8447588,8.0246204 8.7844515,8.0364026 8.6527594,8.087849 8.5658765,8.1217903 8.4733861,8.1663973 8.4472252,8.1869756 8.4179271,8.2100214 8.2148765,8.5901173 7.9185178,9.1766772 7.65389,9.7004348 7.4345619,10.140223 7.4311223,10.153984 c -0.00443,0.01772 0.019452,0.02502 0.081816,0.02502 0.1115273,0 0.2324591,0.04782 0.2714615,0.107346 0.034353,0.05243 0.040614,0.223847 0.010248,0.280585 -0.044025,0.08226 -0.1124698,0.09564 -0.4891983,0.09564 H 6.9491579 l -0.025287,-0.09032 C 6.8779086,10.408101 6.8970235,10.150062 7.0394532,9.0119694 7.1164532,8.3966968 7.1764458,7.8902846 7.1727701,7.8866089 7.1690945,7.8829331 6.9661567,7.8596643 6.7217974,7.8349 L 6.2775077,7.7898744 5.9386504,7.8825441 C 5.4404715,8.0187849 5.1250643,8.0745944 4.8357453,8.0776974 4.6349421,8.0798512 4.5829975,8.0743112 4.5292958,8.0450141 4.4937316,8.0256122 4.462055,8.0125556 4.4589032,8.0159997 4.4557515,8.0194439 4.4210981,8.1006008 4.3818957,8.1963486 4.2223666,8.5859808 4.0039845,8.9200525 3.7180605,9.2118551 l -0.1990097,0.2031013 0.033559,0.058029 c 0.018458,0.031916 0.1591921,0.2480018 0.3127435,0.4801907 0.2547693,0.3852439 0.2831895,0.4211569 0.3249851,0.4106669 0.1985893,-0.04984 0.3368538,-0.02136 0.4077481,0.08399 0.035379,0.05257 0.044229,0.09225 0.044229,0.198265 v 0.132541 H 4.2187924 3.7952695 Z"
     id="path38" /><path
     style="fill:#ff0000;stroke-width:0.019343"
     d="M 3.5665939,10.522342 C 3.1315126,10.077478 2.8084109,9.680339 2.6980579,9.4547855 2.6402891,9.3367104 2.6402469,9.3240494 2.6966342,9.0280968 2.71285,8.9429877 2.7321464,8.6965736 2.7395151,8.4805097 l 0.013397,-0.3928431 -0.056298,0.014061 C 2.6349713,8.1171234 2.0972784,8.3089642 1.4572931,8.5438988 L 1.0479889,8.6941518 0.87917362,9.0932401 C 0.65453871,9.624289 0.62452956,9.7068681 0.59955151,9.8627031 0.56075513,10.104749 0.52039068,10.248414 0.47528964,10.304976 l -0.0446007,0.05593 -0.0557651,-0.03563 C 0.18531497,10.204155 0.06387789,10.068594 0.03672684,9.9477538 0.01595088,9.8552868 0.07183369,9.6257169 0.35515017,8.639652 0.60433127,7.7723932 0.58943493,7.8073202 0.74962725,7.7147308 1.016623,7.5604102 1.3277941,7.3441965 1.417408,7.250731 1.4682677,7.1976854 1.5379156,7.0971895 1.572181,7.0274068 L 1.6344819,6.9005294 1.6288408,6.4265461 C 1.6235005,5.977841 1.6257064,5.9427626 1.6702026,5.7688045 1.7264871,5.5487599 1.8259287,5.2928064 1.9662796,5.0067303 2.0231602,4.8907907 2.069699,4.7833509 2.069699,4.7679748 2.069699,4.7525989 2.0038296,4.6691163 1.9233223,4.582458 1.5926226,4.2264918 1.2713218,3.6343409 1.0947246,3.0553693 0.77549909,2.0087924 0.94314829,0.97772836 1.5279644,0.3908892 1.9736268,-0.056315 2.5755899,-0.09421111 3.1753676,0.28717823 c 0.2574452,0.16370557 0.364398,0.29732228 0.364398,0.45524497 0,0.22515045 -0.2241365,0.4123292 -0.4364129,0.3644531 C 3.0654598,1.0983301 2.9534266,1.0379069 2.85439,0.97260253 2.7553535,0.90729821 2.6295853,0.83686817 2.5749052,0.81609135 2.4508041,0.76893667 2.2967368,0.76829129 2.195016,0.81450001 2.0229375,0.89266994 1.8272925,1.1964531 1.7380361,1.5240642 c -0.06166,0.2263196 -0.061656,0.7272224 6.9e-6,1.0144624 0.092464,0.4307173 0.2902568,0.9181606 0.5025624,1.2385245 0.1040384,0.1569909 0.3771027,0.4792504 0.4200561,0.4957333 0.014459,0.00555 0.094135,-0.01604 0.1770585,-0.047973 C 3.1752488,4.094831 3.5705571,4.0642107 4.4005282,4.1037571 6.2768405,4.1931591 7.9869647,4.3840935 8.4818973,4.5594396 8.7932993,4.6697642 9.2352044,4.6040656 9.7254072,4.3745658 9.997304,4.2472708 10.169787,4.1290151 10.390695,3.9184399 c 0.20455,-0.1949835 0.265736,-0.2330922 0.473265,-0.2947683 0.134264,-0.039902 0.144426,-0.04749 0.350078,-0.2614119 0.11649,-0.1211741 0.25412,-0.2779532 0.305844,-0.3483978 l 0.09404,-0.1280809 0.04371,0.072421 c 0.06128,0.1015431 0.1029,0.3034223 0.1029,0.4991694 v 0.1665028 l 0.111222,0.050396 c 0.255865,0.1159352 0.398328,0.2350079 0.535638,0.4476948 0.0456,0.070629 0.179766,0.2372202 0.298152,0.3702032 0.231699,0.2602675 0.245413,0.2909182 0.184344,0.4119989 -0.01717,0.034047 -0.05417,0.08632 -0.08221,0.1161612 -0.02804,0.029841 -0.07764,0.1081805 -0.110207,0.1740868 -0.0994,0.2011278 -0.183218,0.2325798 -0.498381,0.1870143 -0.282073,-0.040781 -0.586662,0.06447 -0.764724,0.2642515 -0.107024,0.1200773 -0.197505,0.2780348 -0.255839,0.4466296 -0.04755,0.1374158 -0.06753,0.5196258 -0.06258,1.1966663 0.0055,0.7527151 0.09875,1.1359386 0.3839,1.577802 0.139957,0.2168777 0.206727,0.2892174 0.761407,0.8249249 l 0.514777,0.4971703 0.164415,2.13e-4 c 0.139052,1.74e-4 0.177579,0.0076 0.249746,0.04826 0.120993,0.06813 0.152418,0.121532 0.167694,0.284996 l 0.0131,0.140237 H 12.882283 12.393568 L 12.130244,10.475234 C 11.012368,9.6799146 10.151028,8.9783532 10.044168,8.7761264 10.033073,8.7551302 10.013519,8.6857254 10.000715,8.6218936 9.9680498,8.4590574 9.9039048,8.3594643 9.7639146,8.2542317 9.5209008,8.071555 9.3497658,8.012539 9.0635117,8.0126976 8.8503795,8.0128137 8.7827607,8.0265934 8.5760856,8.1120144 L 8.4381579,8.169021 8.3287929,8.3664428 C 8.1915674,8.6141579 7.4277048,10.131969 7.4277048,10.156925 c 0,0.01015 0.045698,0.02465 0.1015506,0.03223 0.1168523,0.01586 0.2363674,0.07062 0.253909,0.116333 0.00663,0.01728 0.012057,0.08159 0.012057,0.142898 0,0.167623 -0.019615,0.179007 -0.343358,0.19926 -0.1455604,0.0091 -0.3171717,0.01401 -0.3813585,0.01091 L 6.9538017,10.652907 6.928506,10.527178 C 6.8952169,10.361718 6.9113305,10.167141 7.0634349,8.8978601 7.1293884,8.347491 7.1780935,7.8919322 7.1716683,7.8855071 7.1652433,7.8790819 6.9622983,7.8526795 6.7206797,7.826835 L 6.2813734,7.7798451 5.9599261,7.8664993 C 5.4902903,7.9931014 5.1784348,8.051031 4.8976765,8.06382 4.7003475,8.0728088 4.6348537,8.0689238 4.5649436,8.0440826 4.5170697,8.0270714 4.4713015,8.0130266 4.4632362,8.0128717 4.4551712,8.012717 4.4339777,8.0495837 4.4161396,8.0947979 4.3370471,8.2952742 4.131555,8.6756682 4.012768,8.8414945 3.9414905,8.9409975 3.8015539,9.107444 3.7017976,9.211376 3.6020414,9.3153077 3.5205787,9.4123352 3.5207694,9.4269926 c 1.934e-4,0.014657 0.1372843,0.2312018 0.3046519,0.4812098 l 0.3043052,0.4545596 0.1567582,-0.0068 c 0.2523911,-0.01093 0.3238723,0.04761 0.3472011,0.28436 l 0.013628,0.138306 H 4.2322832 3.8172522 Z"
     id="path40" /></svg>
