<?xml version="1.0" encoding="UTF-8" standalone="no"?>
<svg
   xmlns:dc="http://purl.org/dc/elements/1.1/"
   xmlns:cc="http://creativecommons.org/ns#"
   xmlns:rdf="http://www.w3.org/1999/02/22-rdf-syntax-ns#"
   xmlns:svg="http://www.w3.org/2000/svg"
   xmlns="http://www.w3.org/2000/svg"
   xmlns:sodipodi="http://sodipodi.sourceforge.net/DTD/sodipodi-0.dtd"
   xmlns:inkscape="http://www.inkscape.org/namespaces/inkscape"
   version="1"
   viewBox="0 0 100 95.2"
   id="svg42"
   sodipodi:docname="dog.svg"
   inkscape:version="1.0.1 (3bc2e813f5, 2020-09-07)">
  <metadata
     id="metadata48">
    <rdf:RDF>
      <cc:Work
         rdf:about="">
        <dc:format>image/svg+xml</dc:format>
        <dc:type
           rdf:resource="http://purl.org/dc/dcmitype/StillImage" />
      </cc:Work>
    </rdf:RDF>
  </metadata>
  <defs
     id="defs46" />
  <sodipodi:namedview
     pagecolor="#ffffff"
     bordercolor="#666666"
     borderopacity="1"
     objecttolerance="10"
     gridtolerance="10"
     guidetolerance="10"
     inkscape:pageopacity="0"
     inkscape:pageshadow="2"
     inkscape:window-width="1920"
     inkscape:window-height="1137"
     id="namedview44"
     showgrid="false"
     inkscape:zoom="7.7205885"
     inkscape:cx="50"
     inkscape:cy="47.599998"
     inkscape:window-x="-8"
     inkscape:window-y="-8"
     inkscape:window-maximized="1"
     inkscape:current-layer="svg42" />
  <path
     fill-rule="evenodd"
     clip-rule="evenodd"
     d="M75.8 91.8C64 93.6 66 87.3 65.8 80l-.6-14-3 13.6c-.5 2.6-1.2 5 2.5 6.8 2.6 2.3-.4 5.5-3.2 5-8.5.4-7.2-5.3-6.5-9.3l.5-5.7c.3-4 1-6.4 1.3-12l-1.2-3c-9.2-2.3-15.5-4-22.6-8l-5.2.8c-2.3.5-1.7 3.2-2 5l-.7 4.8-4 11-.4 1c-.3.6-.2 3.6 1 5.2l2 4.6c2 2.5 2.3 9-2.4 7L17.6 91c-2.5-1-4.5-8-5.4-13v-7.3c-2-.7-3 12.2-2 15l2 6.5c.7 2.2-1.8 3-3.5 3-4.2 0-6-4.3-7-7.8l-.6-2.7C0 80.7.7 74.5 2.8 71l1-2.4c2-4.4-.4-7.6-1-10-1.7-7-3.2-14 1.8-21l.3-.5c0-.4-1.5-1.6-2.4-4.3-2-6-3.6-16.2-1.2-16.2h1.5c4 0 3 16.5 7.7 15.4l34.5.3 6-1.7c2.2-.6 4-2 6-3.2l4-2.5c4.6 4.5 8.6 7.3 15 9.7 2 13.5 0 16.5-1.8 24.6l-.7 3.3c-1.2 5.7-1.6 11.7-1.3 17.7V83c0 3 1.6 3 4 3.8 1.3.7 2.3 3.6-.4 5zM83 9c2 1.4 4.3 3.7 6.3 5.7l2.3 2.6c1.6 1.6 4 1.4 6 1.8l.8.3c2.4 1.2 1.6 3.7 1 5.5l-.6 1c-2.2 5.4-8.7 5.8-13.2 3.3l-2-1h-.8l-1.4 1-3 2.3c-5.8-2.6-10.7-5.7-14.5-9.8l8.8-11.2 3-4.4.6-1.5L77 3C77.7 1 80-.6 81.6 0c1.6.6 2.6 3.6 2.2 5.2l-.4 1.8-.2 2z"
     id="path40" />
  <path
     style="fill:#0000ff;stroke-width:0.129524"
     d="M 7.2571442,94.956319 C 5.048409,94.234498 3.3422382,92.136745 2.2063334,88.746295 1.7316488,87.329457 0.95713651,83.980087 0.78294118,82.590852 0.34007732,79.058945 1.1359502,74.18753 2.5848083,71.561902 3.2340266,70.385386 4.3824059,67.313352 4.5421684,66.325761 4.8090159,64.676211 4.5322417,63.061486 3.5416677,60.488753 2.7539767,58.44295 1.8882385,54.736559 1.4919556,51.713542 1.2360893,49.761685 1.2428488,46.745823 1.5065672,45.194252 1.9154281,42.788742 2.9693173,40.157166 4.3451369,38.1063 c 0.3193183,-0.475992 0.5805788,-0.940791 0.5805788,-1.032888 0,-0.0921 -0.3192825,-0.623097 -0.7095167,-1.180003 C 3.219859,34.471525 2.6892483,33.27407 2.0218736,30.941364 0.30503127,24.940404 -0.31560968,18.789059 0.63177865,17.163746 0.85279128,16.784583 0.89064645,16.772237 1.9454447,16.73532 c 1.3277182,-0.04647 1.7088383,0.09673 2.214846,0.832187 0.7272447,1.057014 1.1794217,2.563059 2.1920816,7.301064 0.8883061,4.156182 1.6327206,6.090905 2.6499196,6.887102 0.3804542,0.297796 0.4301752,0.301831 4.0800001,0.33124 2.032169,0.01637 10.053528,0.0879 17.825244,0.158949 l 14.130391,0.129179 3.416244,-0.977739 c 1.878934,-0.537755 3.825973,-1.17039 4.326752,-1.405852 0.500778,-0.235464 2.542505,-1.448891 4.537172,-2.696505 l 3.626667,-2.268387 0.604435,0.536244 c 0.33244,0.294935 1.196776,1.060816 1.920745,1.701959 3.285489,2.909607 7.01145,5.207679 11.139581,6.870594 0.676762,0.272617 1.253937,0.513146 1.28261,0.534511 0.163148,0.121561 0.719522,5.380322 0.854117,8.07299 0.09755,1.951481 -0.100662,5.072212 -0.455864,7.177457 -0.143203,0.848743 -0.613615,2.947029 -1.04536,4.662857 -2.730462,10.851324 -3.386855,16.213279 -3.132896,25.592066 0.107727,3.97831 0.129783,4.23975 0.401583,4.759854 0.368123,0.704428 0.94957,1.070775 2.509456,1.58111 0.892713,0.292061 1.368271,0.526059 1.6456,0.809718 0.427755,0.437518 0.791883,1.349158 0.787433,1.971438 -0.0061,0.858729 -0.79655,2.000444 -1.628421,2.352184 -0.528899,0.223634 -3.526079,0.476818 -4.444678,0.375459 -1.155475,-0.127495 -2.082776,-0.330802 -2.683707,-0.588391 -0.759633,-0.325617 -1.687522,-1.209316 -2.077167,-1.978243 -0.614545,-1.212747 -0.705863,-2.020782 -0.756352,-6.692653 -0.02579,-2.386476 -0.167307,-6.989114 -0.31448,-10.228083 -0.147174,-3.23897 -0.271533,-6.065827 -0.276354,-6.281905 -0.0076,-0.341811 -0.02406,-0.359202 -0.12647,-0.133821 -0.06474,0.142476 -0.825496,3.464761 -1.690577,7.382857 -1.746289,7.909237 -1.92895,9.196633 -1.473908,10.388139 0.297588,0.779227 1.042818,1.582579 2.069677,2.231099 1.297284,0.819308 1.741829,1.647329 1.480073,2.756821 -0.188433,0.798697 -0.959111,1.670123 -1.872066,2.11679 -0.670703,0.328144 -0.798324,0.344637 -2.541829,0.32849 -2.979325,-0.02759 -4.340925,-0.449767 -5.458084,-1.692316 -0.846801,-0.941847 -1.065551,-1.66772 -1.054903,-3.500452 0.0048,-0.819238 0.104001,-2.014096 0.220536,-2.655238 0.116534,-0.641143 0.361528,-2.856 0.544433,-4.921905 0.182904,-2.065905 0.503772,-5.038476 0.713041,-6.605714 0.407184,-3.049444 0.595523,-4.781475 0.711259,-6.540952 0.07169,-1.089926 0.06624,-1.115808 -0.54476,-2.584174 l -0.617179,-1.48322 -3.302858,-0.858056 C 44.088021,58.342501 40.395553,57.051968 35.421475,54.573977 l -2.46805,-1.229536 -2.712902,0.411639 c -1.492097,0.226401 -2.829475,0.471023 -2.971951,0.543605 -0.946228,0.482034 -1.287421,1.298974 -1.421327,3.40317 -0.04533,0.712381 -0.252114,2.43181 -0.459511,3.820953 l -0.377087,2.525714 -2.088807,5.699047 c -1.148844,3.134476 -2.170811,5.956025 -2.271037,6.270109 -0.382029,1.197177 -0.07588,3.136024 0.76742,4.860136 0.315965,0.645984 0.93491,2.007537 1.375435,3.025674 0.440524,1.018137 0.968659,2.125565 1.173635,2.460952 0.674574,1.10376 0.947475,2.14319 0.959249,3.653605 0.0095,1.222896 -0.02204,1.417602 -0.313208,1.931384 -0.480882,0.848546 -0.909311,1.11323 -1.79409,1.10838 -0.650176,-0.0036 -1.015403,-0.133636 -3.066285,-1.092037 -2.020339,-0.944128 -2.422886,-1.18337 -3.044296,-1.809288 -1.510356,-1.521317 -3.009966,-5.345251 -4.075705,-10.39286 -0.304091,-1.440249 -0.324385,-1.775291 -0.324385,-5.35526 0,-3.611 -0.01287,-3.81889 -0.23647,-3.81889 -1.06633,0 -1.919107,3.369163 -2.2457484,8.87253 -0.2393542,4.032719 -0.1258052,4.880353 1.2507964,9.337091 0.614157,1.988328 1.120166,3.831194 1.124465,4.095258 0.01195,0.733917 -0.381318,1.276463 -1.245662,1.718505 -0.672457,0.343907 -0.900804,0.390059 -2.0655192,0.417467 -0.7202146,0.01695 -1.4551953,-0.0168 -1.6332906,-0.07501 z"
     id="path50" />
  <path
     style="fill:#0000ff;stroke-width:0.129524"
     d="M 75.90008,30.207936 C 71.313481,27.902808 67.463122,25.233863 64.803982,22.516477 l -0.803636,-0.82124 4.332719,-5.504761 C 73.786845,9.2613951 75.392373,6.9419449 76.446988,4.4685713 77.419458,2.1878525 77.700287,1.7059873 78.432786,1.0612156 79.242855,0.34816444 80.033385,0 80.842347,0 c 0.835945,0 1.384207,0.32185268 1.916064,1.1248103 0.984183,1.4858456 1.227987,2.9381792 0.81293,4.8426175 -0.146376,0.6716288 -0.303703,1.5993208 -0.349617,2.0615376 -0.04591,0.4622167 -0.133415,0.8712563 -0.194448,0.9089767 -0.06103,0.03772 0.319779,0.407653 0.846249,0.8220725 1.495327,1.1770734 4.834519,4.3924774 6.404801,6.1673694 1.544061,1.745256 2.152443,2.232758 3.159668,2.531871 0.632195,0.187742 1.09697,0.271706 3.233891,0.584222 0.558109,0.08162 1.211654,0.230676 1.452321,0.331234 0.571658,0.238853 1.312463,0.895706 1.579731,1.400705 0.462383,0.873675 0.100281,3.366244 -0.668285,4.60019 -0.159086,0.255416 -0.45976,0.813258 -0.668165,1.239648 -0.555703,1.136956 -1.964162,2.506535 -3.178186,3.090457 -1.485161,0.714334 -2.478033,0.900343 -4.389302,0.822312 -2.056153,-0.08395 -3.010794,-0.351602 -5.421512,-1.520036 -1.022785,-0.495727 -2.030703,-0.901321 -2.239816,-0.901321 -0.402473,0 -0.807668,0.269357 -3.25022,2.160621 -0.765352,0.592611 -1.466887,1.077474 -1.558967,1.077474 -0.09208,0 -1.185312,-0.511571 -2.429404,-1.136825 z"
     id="path52" />
</svg>
